<?xml version="1.0" encoding="utf-8"?>
<!-- Generator: Adobe Illustrator 21.0.0, SVG Export Plug-In . SVG Version: 6.00 Build 0)  -->
<svg version="1.1" id="Layer_1" xmlns="http://www.w3.org/2000/svg" xmlns:xlink="http://www.w3.org/1999/xlink" x="0px" y="0px"
	 width="18px" height="18px" viewBox="0 0 18 18" enable-background="new 0 0 18 18" xml:space="preserve">
<g>
	<path fill="none" stroke-width="0.6375" stroke-linejoin="round" stroke-miterlimit="10" d="M15.7,12.8
		c0.7-1.2,1.1-2.5,1.1-4c0-4.2-3.4-7.7-7.7-7.7c-4.2,0-7.6,3.4-7.6,7.7c0,1.4,0.4,2.8,1.1,4"/>
	<path fill="none" stroke-width="0.6375" stroke-linejoin="round" stroke-miterlimit="10" d="M11.1,11.4
		c-0.5,0.5-1.1,0.8-1.8,0.8c-0.7,0-1.4-0.3-1.9-0.9c-1.6,0.4-3,1.2-4.1,2.4c1.4,1.6,3.5,2.6,5.8,2.6s4.4-1,5.8-2.6
		C13.9,12.7,12.6,11.8,11.1,11.4z"/>
	
		<ellipse fill="none" stroke-width="0.6375" stroke-linejoin="round" stroke-miterlimit="10" cx="9.3" cy="9.4" rx="2.6" ry="2.9"/>
</g>
</svg>
