<svg version="1.0" id="Layer_1" xmlns="http://www.w3.org/2000/svg" xmlns:xlink="http://www.w3.org/1999/xlink" x="0px" y="0px"
	 viewBox="0 0 24 24" enable-background="new 0 0 24 24" xml:space="preserve">
<path d="M12.6,11.1c-2.4-0.8-3.3-1.5-3.3-2.6c0-1.4,1.3-2.5,2.9-2.5s2.9,1.1,2.9,2.5h2.4c0-2.3-1.8-4.3-4.1-4.8V1.9
	H11v1.9C8.7,4.3,7,6.2,7,8.5c0,3.2,3.3,4.3,4.9,4.8c2,0.7,3.3,1.6,3.3,2.4c0,1.3-1.4,2.4-3.1,2.4S9,17,9,15.7H6.5
	c0,2.3,2,4.3,4.5,4.7v1.7h2.4v-1.8c2.3-0.5,4.1-2.4,4.1-4.6C17.5,13.8,15.8,12.2,12.6,11.1z"/>
</svg>
