<?xml version="1.0" encoding="utf-8"?>
<!-- Generator: Adobe Illustrator 21.0.0, SVG Export Plug-In . SVG Version: 6.00 Build 0)  -->
<svg version="1.1" id="Layer_1" xmlns="http://www.w3.org/2000/svg" xmlns:xlink="http://www.w3.org/1999/xlink" x="0px" y="0px"
	 width="18px" height="18px" viewBox="0 0 18 18" enable-background="new 0 0 18 18" xml:space="preserve">
<g>
	
		<path fill="none" stroke-width="0.6375" stroke-linecap="round" stroke-linejoin="round" stroke-miterlimit="10" d="
		M16.5,10.6V7.5l-1.9-0.3c-0.1-0.2-0.1-0.4-0.2-0.7l1.4-1.9l-2.2-2.2l-1.8,1.4c-0.2-0.1-0.4-0.1-0.6-0.2L11,1.5H7.9L7.6,3.6
		C7.4,3.7,7.2,3.7,7,3.8L5.1,2.4L2.9,4.5l1.3,1.7C4.2,6.5,4,6.7,3.9,6.9L1.5,7.2v3.1l2.3,0.3c0.1,0.2,0.2,0.5,0.3,0.7l-1.2,1.7
		l2.2,2.2l1.6-1.2c0.2,0.1,0.5,0.3,0.7,0.4l0.3,2.2h3.1l0.3-2.1c0.2-0.1,0.5-0.2,0.7-0.3l1.7,1.3l2.2-2.2l-1.2-1.6
		c0.1-0.2,0.1-0.4,0.2-0.7L16.5,10.6z"/>
	<circle fill="none" stroke-width="0.6375" stroke-miterlimit="10" cx="9.6" cy="9.4" r="3"/>
</g>
</svg>
